<svg width="18" height="20" viewBox="0 0 18 20" fill="none" xmlns="http://www.w3.org/2000/svg">
<path d="M2.3077 19.5C1.80257 19.5 1.375 19.325 1.025 18.975C0.675 18.625 0.5 18.1974 0.5 17.6923V4.30775C0.5 3.80262 0.675 3.37505 1.025 3.02505C1.375 2.67505 1.80257 2.50005 2.3077 2.50005H3.69233V0.384674H5.23075V2.50005H12.8077V0.384674H14.3076V2.50005H15.6923C16.1974 2.50005 16.625 2.67505 16.975 3.02505C17.325 3.37505 17.5 3.80262 17.5 4.30775V17.6923C17.5 18.1974 17.325 18.625 16.975 18.975C16.625 19.325 16.1974 19.5 15.6923 19.5H2.3077ZM2.3077 18H15.6923C15.7692 18 15.8397 17.968 15.9038 17.9039C15.9679 17.8398 16 17.7692 16 17.6923V8.30775H1.99997V17.6923C1.99997 17.7692 2.03203 17.8398 2.09613 17.9039C2.16024 17.968 2.23077 18 2.3077 18ZM1.99997 6.80777H16V4.30775C16 4.23082 15.9679 4.16029 15.9038 4.09617C15.8397 4.03207 15.7692 4.00002 15.6923 4.00002H2.3077C2.23077 4.00002 2.16024 4.03207 2.09613 4.09617C2.03203 4.16029 1.99997 4.23082 1.99997 4.30775V6.80777ZM8.99998 12.0769C8.75511 12.0769 8.54646 11.9907 8.37403 11.8183C8.20159 11.6459 8.11538 11.4372 8.11538 11.1923C8.11538 10.9475 8.20159 10.7388 8.37403 10.5664C8.54646 10.394 8.75511 10.3077 8.99998 10.3077C9.24484 10.3077 9.45349 10.394 9.62593 10.5664C9.79836 10.7388 9.88457 10.9475 9.88457 11.1923C9.88457 11.4372 9.79836 11.6459 9.62593 11.8183C9.45349 11.9907 9.24484 12.0769 8.99998 12.0769ZM4.99998 12.0769C4.75511 12.0769 4.54646 11.9907 4.37403 11.8183C4.20159 11.6459 4.11538 11.4372 4.11538 11.1923C4.11538 10.9475 4.20159 10.7388 4.37403 10.5664C4.54646 10.394 4.75511 10.3077 4.99998 10.3077C5.24484 10.3077 5.45349 10.394 5.62593 10.5664C5.79836 10.7388 5.88457 10.9475 5.88457 11.1923C5.88457 11.4372 5.79836 11.6459 5.62593 11.8183C5.45349 11.9907 5.24484 12.0769 4.99998 12.0769ZM13 12.0769C12.7551 12.0769 12.5465 11.9907 12.374 11.8183C12.2016 11.6459 12.1154 11.4372 12.1154 11.1923C12.1154 10.9475 12.2016 10.7388 12.374 10.5664C12.5465 10.394 12.7551 10.3077 13 10.3077C13.2448 10.3077 13.4535 10.394 13.6259 10.5664C13.7984 10.7388 13.8846 10.9475 13.8846 11.1923C13.8846 11.4372 13.7984 11.6459 13.6259 11.8183C13.4535 11.9907 13.2448 12.0769 13 12.0769ZM8.99998 16C8.75511 16 8.54646 15.9138 8.37403 15.7414C8.20159 15.5689 8.11538 15.3603 8.11538 15.1154C8.11538 14.8706 8.20159 14.6619 8.37403 14.4895C8.54646 14.317 8.75511 14.2308 8.99998 14.2308C9.24484 14.2308 9.45349 14.317 9.62593 14.4895C9.79836 14.6619 9.88457 14.8706 9.88457 15.1154C9.88457 15.3603 9.79836 15.5689 9.62593 15.7414C9.45349 15.9138 9.24484 16 8.99998 16ZM4.99998 16C4.75511 16 4.54646 15.9138 4.37403 15.7414C4.20159 15.5689 4.11538 15.3603 4.11538 15.1154C4.11538 14.8706 4.20159 14.6619 4.37403 14.4895C4.54646 14.317 4.75511 14.2308 4.99998 14.2308C5.24484 14.2308 5.45349 14.317 5.62593 14.4895C5.79836 14.6619 5.88457 14.8706 5.88457 15.1154C5.88457 15.3603 5.79836 15.5689 5.62593 15.7414C5.45349 15.9138 5.24484 16 4.99998 16ZM13 16C12.7551 16 12.5465 15.9138 12.374 15.7414C12.2016 15.5689 12.1154 15.3603 12.1154 15.1154C12.1154 14.8706 12.2016 14.6619 12.374 14.4895C12.5465 14.317 12.7551 14.2308 13 14.2308C13.2448 14.2308 13.4535 14.317 13.6259 14.4895C13.7984 14.6619 13.8846 14.8706 13.8846 15.1154C13.8846 15.3603 13.7984 15.5689 13.6259 15.7414C13.4535 15.9138 13.2448 16 13 16Z" fill="white"/>
</svg>
