<svg width="19" height="20" viewBox="0 0 19 20" fill="currentColor" xmlns="http://www.w3.org/2000/svg">
<path d="M4.19051 8.61523L8.99816 0.730707L13.8058 8.61523H4.19051ZM14.4982 19.6152C13.3507 19.6152 12.378 19.2162 11.5799 18.4181C10.7818 17.6201 10.3828 16.6473 10.3828 15.4999C10.3828 14.3525 10.7818 13.3797 11.5799 12.5816C12.378 11.7836 13.3507 11.3845 14.4982 11.3845C15.6456 11.3845 16.6183 11.7836 17.4164 12.5816C18.2145 13.3797 18.6135 14.3525 18.6135 15.4999C18.6135 16.6473 18.2145 17.6201 17.4164 18.4181C16.6183 19.2162 15.6456 19.6152 14.4982 19.6152ZM0.382812 19.1152V11.8845H7.61351V19.1152H0.382812ZM14.4979 18.1153C15.2301 18.1153 15.8491 17.8625 16.3549 17.3569C16.8607 16.8513 17.1136 16.2324 17.1136 15.5002C17.1136 14.7679 16.8608 14.1489 16.3552 13.6432C15.8496 13.1374 15.2307 12.8845 14.4984 12.8845C13.7662 12.8845 13.1472 13.1373 12.6414 13.6429C12.1357 14.1485 11.8828 14.7674 11.8828 15.4996C11.8828 16.2318 12.1356 16.8508 12.6412 17.3566C13.1467 17.8624 13.7657 18.1153 14.4979 18.1153ZM1.88276 17.6153H6.11356V13.3845H1.88276V17.6153ZM6.83661 7.11528H11.1597L8.99816 3.63833L6.83661 7.11528Z" fill="#A9B7C5"/>
</svg>
