<svg width="26" height="28" viewBox="0 0 26 28" fill="none" xmlns="http://www.w3.org/2000/svg">
<path d="M11.9362 24.7226V14.6097L3.082 9.48248V19.3501C3.082 19.4228 3.10016 19.4909 3.1365 19.5545C3.17282 19.618 3.2273 19.6725 3.29995 19.7179L11.9362 24.7226ZM14.0611 24.7226L22.6974 19.7179C22.77 19.6725 22.8245 19.618 22.8608 19.5545C22.8972 19.4909 22.9153 19.4228 22.9153 19.3501V9.48248L14.0611 14.6097V24.7226ZM12.9987 12.779L21.7466 7.7226L13.2166 2.78877C13.144 2.74336 13.0713 2.72066 12.9987 2.72066C12.926 2.72066 12.8534 2.74336 12.7807 2.78877L4.25071 7.7226L12.9987 12.779ZM2.23749 21.5841C1.83428 21.3516 1.52007 21.041 1.29487 20.6523C1.06964 20.2637 0.957031 19.8369 0.957031 19.3719V8.62706C0.957031 8.16211 1.06964 7.73531 1.29487 7.34665C1.52007 6.95796 1.83428 6.64738 2.23749 6.41491L11.7182 0.958046C12.1214 0.725571 12.5482 0.609333 12.9987 0.609333C13.4491 0.609333 13.8759 0.725571 14.2791 0.958046L23.7598 6.41491C24.163 6.64738 24.4773 6.95796 24.7025 7.34665C24.9277 7.73531 25.0403 8.16211 25.0403 8.62706V19.3719C25.0403 19.8369 24.9277 20.2637 24.7025 20.6523C24.4773 21.041 24.163 21.3516 23.7598 21.5841L14.2791 27.0409C13.8759 27.2734 13.4491 27.3896 12.9987 27.3896C12.5482 27.3896 12.1214 27.2734 11.7182 27.0409L2.23749 21.5841Z" fill="#18F72E"/>
</svg>
