<svg width="28" height="24" viewBox="0 0 28 24" fill="none" xmlns="http://www.w3.org/2000/svg">
<path d="M3.37625 23.6245V6.76625L0.75 1.01787L2.67334 0.113405L5.70281 6.69541H22.2996L25.3291 0.113405L27.2524 1.01787L24.6262 6.76625V23.6245H3.37625ZM11.1679 14.062H16.8346C17.1356 14.062 17.3879 13.9602 17.5916 13.7564C17.7952 13.5527 17.897 13.3002 17.897 12.9991C17.897 12.6979 17.7952 12.4456 17.5916 12.2422C17.3879 12.0388 17.1356 11.9371 16.8346 11.9371H11.1679C10.8668 11.9371 10.6145 12.0389 10.4109 12.2427C10.2072 12.4464 10.1054 12.6988 10.1054 13C10.1054 13.3012 10.2072 13.5535 10.4109 13.7569C10.6145 13.9603 10.8668 14.062 11.1679 14.062ZM5.50122 21.4995H22.5012V8.82038H5.50122V21.4995Z" fill="#F76218"/>
</svg>
