<svg width="20" height="18" viewBox="0 0 20 18" fill="currentColor" xmlns="http://www.w3.org/2000/svg">
<path d="M2.50226 17.5005V5.60054L0.648438 1.54286L2.00609 0.904413L4.14454 5.55054H15.8599L17.9984 0.904413L19.356 1.54286L17.5022 5.60054V17.5005H2.50226ZM8.00224 10.7505H12.0022C12.2147 10.7505 12.3929 10.6786 12.5366 10.5348C12.6803 10.391 12.7522 10.2128 12.7522 10.0002C12.7522 9.78759 12.6803 9.6095 12.5366 9.46591C12.3929 9.32233 12.2147 9.25054 12.0022 9.25054H8.00224C7.78974 9.25054 7.61162 9.32244 7.46789 9.46624C7.32414 9.61005 7.25226 9.78825 7.25226 10.0008C7.25226 10.2134 7.32414 10.3915 7.46789 10.5351C7.61162 10.6787 7.78974 10.7505 8.00224 10.7505ZM4.00224 16.0005H16.0022V7.05051H4.00224V16.0005Z" fill="currentColor"/>
</svg>
