<svg width="18" height="20" viewBox="0 0 18 20" fill="currentColor" xmlns="http://www.w3.org/2000/svg">
<path d="M8.25 17.57V10.4315L1.99997 6.81229V13.7777C1.99997 13.829 2.0128 13.877 2.03845 13.9219C2.06408 13.9668 2.10254 14.0053 2.15383 14.0373L8.25 17.57ZM9.74995 17.57L15.8461 14.0373C15.8974 14.0053 15.9359 13.9668 15.9615 13.9219C15.9872 13.877 16 13.829 16 13.7777V6.81229L9.74995 10.4315V17.57ZM8.99998 9.13924L15.175 5.57001L9.15383 2.08731C9.10254 2.05526 9.05126 2.03924 8.99998 2.03924C8.94869 2.03924 8.89741 2.05526 8.84613 2.08731L2.82495 5.57001L8.99998 9.13924ZM1.40385 15.3546C1.11923 15.1905 0.897441 14.9713 0.738475 14.6969C0.579491 14.4225 0.5 14.1213 0.5 13.7931V6.20846C0.5 5.88026 0.579491 5.57899 0.738475 5.30464C0.897441 5.03027 1.11923 4.81104 1.40385 4.64694L8.09613 0.795036C8.38074 0.630936 8.68202 0.548885 8.99998 0.548885C9.31793 0.548885 9.61921 0.630936 9.90383 0.795036L16.5961 4.64694C16.8807 4.81104 17.1025 5.03027 17.2615 5.30464C17.4205 5.57899 17.5 5.88026 17.5 6.20846V13.7931C17.5 14.1213 17.4205 14.4225 17.2615 14.6969C17.1025 14.9713 16.8807 15.1905 16.5961 15.3546L9.90383 19.2065C9.61921 19.3706 9.31793 19.4526 8.99998 19.4526C8.68202 19.4526 8.38074 19.3706 8.09613 19.2065L1.40385 15.3546Z" fill="currentColor"/>
</svg>
