<svg width="22" height="16" viewBox="0 0 22 16" fill="currentColor" xmlns="http://www.w3.org/2000/svg">
<path d="M0.796875 15.3066V13.0836C0.796875 12.5682 0.929892 12.1083 1.19592 11.7038C1.46194 11.2993 1.81721 10.9846 2.26172 10.7597C3.21207 10.2949 4.16769 9.93651 5.12857 9.68459C6.08947 9.43267 7.14557 9.30671 8.29685 9.30671C9.44813 9.30671 10.5042 9.43267 11.4651 9.68459C12.426 9.93651 13.3816 10.2949 14.332 10.7597C14.7765 10.9846 15.1318 11.2993 15.3978 11.7038C15.6638 12.1083 15.7968 12.5682 15.7968 13.0836V15.3066H0.796875ZM17.7968 15.3066V12.9605C17.7968 12.3041 17.6361 11.6785 17.3146 11.0838C16.9932 10.489 16.5373 9.97873 15.9469 9.55286C16.6174 9.65286 17.2539 9.80767 17.8564 10.0173C18.459 10.2269 19.034 10.4747 19.5814 10.7605C20.0981 11.0362 20.4971 11.361 20.7785 11.7351C21.0599 12.1093 21.2006 12.5177 21.2006 12.9605V15.3066H17.7968ZM8.29685 7.69126C7.33437 7.69126 6.51042 7.34857 5.825 6.66317C5.13958 5.97775 4.79688 5.1538 4.79688 4.19131C4.79688 3.22881 5.13958 2.40486 5.825 1.71946C6.51042 1.03405 7.33437 0.691339 8.29685 0.691339C9.25933 0.691339 10.0833 1.03405 10.7687 1.71946C11.4541 2.40486 11.7968 3.22881 11.7968 4.19131C11.7968 5.1538 11.4541 5.97775 10.7687 6.66317C10.0833 7.34857 9.25933 7.69126 8.29685 7.69126ZM16.9314 4.19131C16.9314 5.1538 16.5887 5.97775 15.9033 6.66317C15.2178 7.34857 14.3939 7.69126 13.4314 7.69126C13.3186 7.69126 13.175 7.67845 13.0007 7.65281C12.8263 7.62718 12.6827 7.59898 12.5699 7.56821C12.9643 7.0941 13.2673 6.56812 13.4791 5.99029C13.6909 5.41246 13.7968 4.8124 13.7968 4.19011C13.7968 3.56785 13.6888 2.97017 13.4728 2.39709C13.2568 1.82402 12.9558 1.29646 12.5699 0.814414C12.7135 0.763131 12.8571 0.729796 13.0007 0.714415C13.1442 0.699031 13.2878 0.691339 13.4314 0.691339C14.3939 0.691339 15.2178 1.03405 15.9033 1.71946C16.5887 2.40486 16.9314 3.22881 16.9314 4.19131ZM2.29685 13.8067H14.2969V13.0836C14.2969 12.8746 14.2446 12.6887 14.1401 12.5259C14.0356 12.3631 13.8699 12.2208 13.643 12.099C12.8199 11.6746 11.9725 11.3531 11.1007 11.1345C10.2289 10.916 9.29428 10.8067 8.29685 10.8067C7.29942 10.8067 6.3648 10.916 5.493 11.1345C4.62122 11.3531 3.77378 11.6746 2.9507 12.099C2.72378 12.2208 2.55808 12.3631 2.45358 12.5259C2.34909 12.6887 2.29685 12.8746 2.29685 13.0836V13.8067ZM8.29685 6.19131C8.84685 6.19131 9.31768 5.99548 9.70935 5.60381C10.101 5.21215 10.2969 4.74131 10.2969 4.19131C10.2969 3.64131 10.101 3.17048 9.70935 2.77881C9.31768 2.38715 8.84685 2.19131 8.29685 2.19131C7.74685 2.19131 7.27602 2.38715 6.88435 2.77881C6.49268 3.17048 6.29685 3.64131 6.29685 4.19131C6.29685 4.74131 6.49268 5.21215 6.88435 5.60381C7.27602 5.99548 7.74685 6.19131 8.29685 6.19131Z" fill="currentColor"/>
</svg>
